<?xml version="1.0" encoding="utf-8"?>
<!-- Generator: Adobe Illustrator 18.0.0, SVG Export Plug-In . SVG Version: 6.00 Build 0)  -->
<!DOCTYPE svg PUBLIC "-//W3C//DTD SVG 1.1//EN" "http://www.w3.org/Graphics/SVG/1.1/DTD/svg11.dtd">
<svg version="1.1" id="Camada_1" xmlns="http://www.w3.org/2000/svg" xmlns:xlink="http://www.w3.org/1999/xlink" x="0px" y="0px"
	 viewBox="0 0 512 512" enable-background="new 0 0 512 512" xml:space="preserve">
<g id="Camada_1_1_">
	<g id="XMLID_9_">
		<path id="XMLID_10_" fill="#EAECEB" d="M110,436.5c0,0-20.8,4.5-7.2,26.2c4.5,7.2,45.2,29.8,121,33.4c0,0,63.2,1.8,98.4-2.7
			c19-2.7,56-12.6,68.6-22.6c23.5-18.1,15.4-30.7-0.9-30.7c0,0-43.3,26.2-65.9,29.8c0,0-76.8,11.7-138.2,0c0,0-42.4-12.6-50.6-17.2
			C135.3,452.8,122.6,444.7,110,436.5z"/>
		<g id="XMLID_2_">
			<path id="XMLID_3_" fill="none" stroke="#000000" stroke-width="9" stroke-miterlimit="10" d="M179.5,247.8L128,363.4
				c0,0-20.8,47.9-17.2,70.4c0,0,16.3,24.4,75,36.1c0,0,69.5,14.4,138.2,0c0,0,38.8-8.1,72.2-37.9c0,0,1.8-26.2-19.9-72.2
				l-44.2-97.5c0,0-34.3-72.2-37.9-89.4c-5.4-28-4.5-60.5-1.8-75c3.6-16.3,6.3-44.2,27.1-59.6c0,0-16.3-10.8-67.7-11.7
				c0,0-56-0.9-71.3,11.7c0,0,24.4,24.4,29.8,54.2c4.5,21.7,6.3,42.4,1.8,75C210.2,178.3,209.3,189.1,179.5,247.8z"/>
			<path id="XMLID_1_" fill="#F29E32" d="M153.3,350.8c0,0-24.4,58.7-24.4,77.7c0,0,24.4,19.9,75.9,26.2c0,0,60.5,8.1,97.5,0.9
				c0,0,47.9-7.2,69.5-28c0,0-1.8-37-16.3-59.6c0,0-33.4,15.4-54.2,17.2c0,0-28,5.4-65.9-1.8C237.3,382.4,185.8,375.1,153.3,350.8z"
				/>
			<path id="XMLID_5_" fill="#CF6D00" d="M172.3,352.6c0,0,119.2,51.5,178.8,4.5C351.1,357.1,267.1,303.8,172.3,352.6z"/>
			<path id="XMLID_4_" fill="#CF6D00" d="M205.7,330.9h-1.8c-6.3,0-11.7-5.4-11.7-11.7v-1.8c0-6.3,5.4-11.7,11.7-11.7h1.8
				c6.3,0,11.7,5.4,11.7,11.7v1.8C217.4,325.5,212,330.9,205.7,330.9z"/>
			<path id="XMLID_6_" fill="none" stroke="#F29E33" stroke-width="9" stroke-miterlimit="10" d="M262.6,294.8h-2.7
				c-9.9,0-19-8.1-19-19v-2.7c0-9.9,8.1-19,19-19h2.7c9.9,0,19,8.1,19,19v2.7C281.6,285.7,273.4,294.8,262.6,294.8z"/>
			<path id="XMLID_7_" fill="none" stroke="#F29E33" stroke-width="9" stroke-miterlimit="10" d="M248.1,219.8h-1.8
				c-8.1,0-14.4-6.3-14.4-14.4v-1.8c0-8.1,6.3-14.4,14.4-14.4h1.8c8.1,0,14.4,6.3,14.4,14.4v1.8
				C262.6,213.5,255.4,219.8,248.1,219.8z"/>
			<path id="XMLID_8_" fill="none" stroke="#000000" stroke-width="9" stroke-miterlimit="10" d="M180.4,37.4
				c0,0,34.3,13.5,71.3,13.5c0,0,45.2-1.8,67.7-13.5"/>
		</g>
	</g>
</g>
</svg>
