<?xml version="1.0" encoding="utf-8"?>
<!-- Generator: Adobe Illustrator 18.0.0, SVG Export Plug-In . SVG Version: 6.00 Build 0)  -->
<!DOCTYPE svg PUBLIC "-//W3C//DTD SVG 1.1//EN" "http://www.w3.org/Graphics/SVG/1.1/DTD/svg11.dtd">
<svg version="1.1" xmlns="http://www.w3.org/2000/svg" xmlns:xlink="http://www.w3.org/1999/xlink" x="0px" y="0px"
	 viewBox="0 0 75 82" enable-background="new 0 0 75 82" xml:space="preserve">
<g id="Camada_2">
	<g id="XMLID_11_">
		<g id="XMLID_16_">
			<polygon id="XMLID_21_" points="43.9,71.8 40.9,71.8 40.2,69.7 36.3,69.7 36.8,69.1 40,69.1 38.6,63.3 36.1,71.8 35.1,71.8 
				38.4,61.1 41,61.1 			"/>
			<rect id="XMLID_19_" x="23.3" y="64" width="2.6" height="7.8"/>
			<ellipse id="XMLID_18_" cx="24.6" cy="62.1" rx="1.4" ry="0.9"/>
			<polygon id="XMLID_17_" points="35.9,71.8 27.9,71.8 27.9,61.1 30.9,61.1 31,71.2 35.9,71.2 			"/>
		</g>
		<g id="XMLID_14_">
			<path id="XMLID_15_" d="M49.4,61.1c2.1,0,3.1,0.8,3.1,2.5c0,1-0.3,1.7-0.9,2c-0.6,0.3-1,0.5-1.4,0.5c1.8,0.2,2.7,1,2.7,2.6
				c0,1.2-0.3,2-1,2.4c-0.6,0.4-1.4,0.6-2.5,0.6h-4V61.1H49.4z M50.7,63.8c-0.1-0.9-0.8-1.7-1.8-1.7h-1V66h1.3
				C50.3,66,50.7,65,50.7,63.8z M49.2,70.5c1.1,0,1.7-0.6,1.7-1.9c0-0.6-0.1-1.4-0.5-1.7c-0.3-0.3-0.5-0.4-1.6-0.5h-0.9v4H49.2z"/>
		</g>
	</g>
</g>
<g id="Camada_1">
	<g id="XMLID_9_">
		<path id="XMLID_10_" fill="#EAECEB" d="M21.9,53.5c0,0-2.3,0.5-0.8,2.9c0.5,0.8,5,3.3,13.4,3.7c0,0,7,0.2,10.9-0.3
			c2.1-0.3,6.2-1.4,7.6-2.5c2.6-2,1.7-3.4-0.1-3.4c0,0-4.8,2.9-7.3,3.3c0,0-8.5,1.3-15.3,0c0,0-4.7-1.4-5.6-1.9
			C24.7,55.3,23.3,54.4,21.9,53.5z"/>
		<g id="XMLID_2_">
			<path id="XMLID_3_" fill="none" stroke="#000000" stroke-miterlimit="10" d="M29.6,32.6l-5.7,12.8c0,0-2.3,5.3-1.9,7.8
				c0,0,1.8,2.7,8.3,4c0,0,7.7,1.6,15.3,0c0,0,4.3-0.9,8-4.2c0,0,0.2-2.9-2.2-8l-4.9-10.8c0,0-3.8-8-4.2-9.9
				c-0.6-3.1-0.5-6.7-0.2-8.3c0.4-1.8,0.7-4.9,3-6.6c0,0-1.8-1.2-7.5-1.3c0,0-6.2-0.1-7.9,1.3c0,0,2.7,2.7,3.3,6
				c0.5,2.4,0.7,4.7,0.2,8.3C33,24.9,32.9,26.1,29.6,32.6z"/>
			<path id="XMLID_1_" fill="#F29E32" d="M26.7,44c0,0-2.7,6.5-2.7,8.6c0,0,2.7,2.2,8.4,2.9c0,0,6.7,0.9,10.8,0.1
				c0,0,5.3-0.8,7.7-3.1c0,0-0.2-4.1-1.8-6.6c0,0-3.7,1.7-6,1.9c0,0-3.1,0.6-7.3-0.2C36,47.5,30.3,46.7,26.7,44z"/>
			<path id="XMLID_5_" fill="#CF6D00" d="M28.8,44.2c0,0,13.2,5.7,19.8,0.5C48.6,44.7,39.3,38.8,28.8,44.2z"/>
			<path id="XMLID_4_" fill="#CF6D00" d="M32.5,41.8h-0.2c-0.7,0-1.3-0.6-1.3-1.3v-0.2c0-0.7,0.6-1.3,1.3-1.3h0.2
				c0.7,0,1.3,0.6,1.3,1.3v0.2C33.8,41.2,33.2,41.8,32.5,41.8z"/>
			<path id="XMLID_6_" fill="none" stroke="#F29E33" stroke-miterlimit="10" d="M38.8,37.8h-0.3c-1.1,0-2.1-0.9-2.1-2.1v-0.3
				c0-1.1,0.9-2.1,2.1-2.1h0.3c1.1,0,2.1,0.9,2.1,2.1v0.3C40.9,36.8,40,37.8,38.8,37.8z"/>
			<path id="XMLID_7_" fill="none" stroke="#F29E33" stroke-width="0.5" stroke-miterlimit="10" d="M37.2,29.5H37
				c-0.9,0-1.6-0.7-1.6-1.6v-0.2c0-0.9,0.7-1.6,1.6-1.6h0.2c0.9,0,1.6,0.7,1.6,1.6v0.2C38.8,28.8,38,29.5,37.2,29.5z"/>
			<path id="XMLID_8_" fill="none" stroke="#000000" stroke-miterlimit="10" d="M29.7,9.3c0,0,3.8,1.5,7.9,1.5c0,0,5-0.2,7.5-1.5"/>
		</g>
	</g>
</g>
</svg>
